<mxfile host="app.diagrams.net" modified="2023-06-20T06:59:42.988Z" agent="Mozilla/5.0 (Windows NT 10.0; Win64; x64) AppleWebKit/537.36 (KHTML, like Gecko) Chrome/114.0.0.0 Safari/537.36" version="21.5.0" etag="5LX8dBr8nb7FLPo1fSR5" type="github">
  <diagram name="หน้า-1" id="l_7-vU9Pn0QL2Ib-djW-">
    <mxGraphModel>
      <root>
        <mxCell id="0" />
        <mxCell id="1" parent="0" />
      </root>
    </mxGraphModel>
  </diagram>
</mxfile>
